<svg width="420" height="314" viewBox="0 0 420 314" fill="none" xmlns="http://www.w3.org/2000/svg">
<path opacity="0.1" d="M177.554 6.2145C125.902 -13.5254 65.9792 15.6991 28.8242 66.4829C17.8739 81.4721 8.6294 99.1778 4.54412 119.196C-0.40033 143.438 2.55623 169.529 9.49279 192.924C19.9545 228.205 39.8755 259.131 65.8107 276.058C91.7459 292.984 123.628 295.069 149.879 278.96C164.489 269.993 177.722 255.581 193.768 253.189C218.331 249.529 239.111 274.584 261.34 288.693C276.556 298.35 293.293 303.059 309.854 307.624C328.629 312.804 348.499 317.833 366.664 309.768C381.708 303.084 393.918 287.834 402.012 269.997C410.107 252.161 414.428 231.836 417.25 211.456C419.019 198.665 420.232 185.554 418.796 172.709C417.301 159.29 412.95 146.597 407.277 135.255C394.474 109.627 375.071 90.5061 354.097 76.8098C333.123 63.1136 310.468 54.4461 287.898 46.1155C247.328 31.1052 219.4 13.8586 177.655 6.13027L177.554 6.2145Z" fill="#4F46E5"/>
<path opacity="0.1" d="M329.03 90.7672C334.061 90.7672 338.14 86.6887 338.14 81.6575C338.14 76.6263 334.061 72.5477 329.03 72.5477C323.999 72.5477 319.92 76.6263 319.92 81.6575C319.92 86.6887 323.999 90.7672 329.03 90.7672Z" fill="#4F46E5"/>
<path opacity="0.1" d="M35.4793 44.0181C40.5105 44.0181 44.5891 39.9396 44.5891 34.9084C44.5891 29.8772 40.5105 25.7986 35.4793 25.7986C30.4481 25.7986 26.3696 29.8772 26.3696 34.9084C26.3696 39.9396 30.4481 44.0181 35.4793 44.0181Z" fill="#4F46E5"/>
<path opacity="0.1" d="M81.8066 73.7686C86.8378 73.7686 90.9163 69.69 90.9163 64.6589C90.9163 59.6277 86.8378 55.5491 81.8066 55.5491C76.7754 55.5491 72.6968 59.6277 72.6968 64.6589C72.6968 69.69 76.7754 73.7686 81.8066 73.7686Z" fill="#4F46E5"/>
<path opacity="0.1" d="M297.488 51.119C302.52 51.119 306.598 47.0404 306.598 42.0092C306.598 36.978 302.52 32.8995 297.488 32.8995C292.457 32.8995 288.379 36.978 288.379 42.0092C288.379 47.0404 292.457 51.119 297.488 51.119Z" fill="#4F46E5"/>
<path opacity="0.1" d="M359.462 69.2669C367.894 69.2669 374.73 62.4315 374.73 53.9997C374.73 45.5679 367.894 38.7325 359.462 38.7325C351.031 38.7325 344.195 45.5679 344.195 53.9997C344.195 62.4315 351.031 69.2669 359.462 69.2669Z" fill="#4F46E5"/>
<path opacity="0.1" d="M374.098 144.655C382.53 144.655 389.366 137.82 389.366 129.388C389.366 120.956 382.53 114.121 374.098 114.121C365.667 114.121 358.831 120.956 358.831 129.388C358.831 137.82 365.667 144.655 374.098 144.655Z" fill="#4F46E5"/>
<path opacity="0.1" d="M15.2672 105.908C23.699 105.908 30.5343 99.0726 30.5343 90.6408C30.5343 82.209 23.699 75.3736 15.2672 75.3736C6.83534 75.3736 0 82.209 0 90.6408C0 99.0726 6.83534 105.908 15.2672 105.908Z" fill="#4F46E5"/>
</svg>
