<svg width="22" height="20" viewBox="0 0 22 20" fill="none" xmlns="http://www.w3.org/2000/svg">
<g clip-path="url(#clip0_314_1202)">
<path d="M10.9612 0.251604C5.4489 0.251604 0.979004 4.72072 0.979004 10.2338C0.979004 14.6443 3.83921 18.386 7.80547 19.706C8.30433 19.7984 8.48753 19.4894 8.48753 19.2258C8.48753 18.9878 8.47821 18.2013 8.47398 17.3673C5.69684 17.9711 5.11085 16.1895 5.11085 16.1895C4.65678 15.0357 4.00252 14.7289 4.00252 14.7289C3.09687 14.1093 4.07079 14.122 4.07079 14.122C5.07319 14.1925 5.60102 15.1507 5.60102 15.1507C6.49132 16.6768 7.93622 16.2356 8.50585 15.9806C8.59541 15.3354 8.85415 14.8951 9.13959 14.6458C6.92245 14.3933 4.59164 13.5374 4.59164 9.71249C4.59164 8.62271 4.9816 7.73218 5.6202 7.03314C5.51654 6.78167 5.17489 5.76642 5.71689 4.39144C5.71689 4.39144 6.55512 4.12314 8.46271 5.41467C9.25891 5.19343 10.1129 5.08257 10.9612 5.07881C11.8096 5.08257 12.6642 5.19343 13.4619 5.41467C15.3672 4.12314 16.2043 4.39144 16.2043 4.39144C16.7476 5.76642 16.4058 6.78167 16.3022 7.03314C16.9422 7.73218 17.3295 8.62263 17.3295 9.71249C17.3295 13.5465 14.9943 14.3907 12.7715 14.6378C13.1295 14.9476 13.4485 15.5551 13.4485 16.4864C13.4485 17.822 13.4369 18.8969 13.4369 19.2258C13.4369 19.4914 13.6166 19.8027 14.1227 19.7046C18.0867 18.3832 20.9434 14.6428 20.9434 10.2338C20.9434 4.72072 16.4741 0.251604 10.9612 0.251604Z" fill="#161614"/>
<path d="M4.7178 14.4715C4.69588 14.521 4.61775 14.5359 4.54674 14.5019C4.47432 14.4693 4.43361 14.4017 4.4571 14.3519C4.47863 14.3009 4.55676 14.2866 4.62902 14.3209C4.70159 14.3534 4.74293 14.4217 4.7178 14.4715ZM5.20883 14.9096C5.16123 14.9537 5.06814 14.9332 5.00496 14.8634C4.93967 14.7939 4.92746 14.7008 4.97576 14.656C5.02485 14.6119 5.11512 14.6325 5.18056 14.7022C5.24586 14.7726 5.25854 14.865 5.20875 14.9096M5.5457 15.4701C5.48448 15.5126 5.38443 15.4728 5.32266 15.384C5.26152 15.2953 5.26152 15.1888 5.32399 15.1461C5.38599 15.1035 5.48448 15.1418 5.54711 15.2299C5.60818 15.3202 5.60818 15.4267 5.54563 15.4702M6.11533 16.1194C6.06061 16.1796 5.94412 16.1635 5.85878 16.0812C5.77157 16.0007 5.74722 15.8864 5.8021 15.8261C5.85745 15.7656 5.97465 15.7826 6.06061 15.8643C6.14727 15.9446 6.17366 16.0597 6.11533 16.1194ZM6.85156 16.3386C6.82753 16.4167 6.71526 16.4522 6.60221 16.419C6.48932 16.3848 6.41541 16.2932 6.4382 16.2142C6.46168 16.1356 6.57442 16.0985 6.68833 16.1341C6.80107 16.1681 6.87505 16.259 6.85156 16.3386ZM7.68956 16.4315C7.69238 16.5139 7.59648 16.5821 7.47779 16.5836C7.3584 16.5862 7.26187 16.5196 7.26062 16.4386C7.26062 16.3555 7.35433 16.2878 7.47364 16.2859C7.59233 16.2835 7.68956 16.3497 7.68956 16.4315ZM8.51269 16.3999C8.52694 16.4803 8.44442 16.5628 8.3266 16.5847C8.21073 16.6058 8.10348 16.5563 8.08868 16.4767C8.07428 16.3943 8.15836 16.3119 8.27399 16.2905C8.39205 16.27 8.49766 16.3183 8.51269 16.3999Z" fill="#161614"/>
</g>
<defs>
<clipPath id="clip0_314_1202">
<rect width="20.0419" height="19.4968" fill="white" transform="translate(0.979004 0.251604)"/>
</clipPath>
</defs>
</svg>
