<svg width="20" height="20" viewBox="0 0 20 20" fill="none" xmlns="http://www.w3.org/2000/svg">
<g clip-path="url(#clip0_314_1217)">
<path d="M6.66744 10C6.66744 8.15912 8.15936 6.6664 10.0002 6.6664C11.8411 6.6664 13.3338 8.15912 13.3338 10C13.3338 11.8409 11.8411 13.3336 10.0002 13.3336C8.15936 13.3336 6.66744 11.8409 6.66744 10ZM4.86536 10C4.86536 12.836 7.16424 15.1349 10.0002 15.1349C12.8362 15.1349 15.1351 12.836 15.1351 10C15.1351 7.164 12.8362 4.86512 10.0002 4.86512C7.16424 4.86512 4.86536 7.164 4.86536 10ZM14.1384 4.66152C14.1383 4.89886 14.2086 5.13089 14.3404 5.32829C14.4722 5.52568 14.6595 5.67956 14.8787 5.77047C15.098 5.86138 15.3392 5.88524 15.572 5.83904C15.8048 5.79283 16.0187 5.67862 16.1866 5.51087C16.3545 5.34311 16.4689 5.12934 16.5153 4.89658C16.5616 4.66382 16.538 4.42253 16.4472 4.20322C16.3565 3.98392 16.2028 3.79644 16.0055 3.6645C15.8082 3.53257 15.5762 3.4621 15.3389 3.462H15.3384C15.0203 3.46215 14.7152 3.58856 14.4902 3.81347C14.2652 4.03837 14.1387 4.34339 14.1384 4.66152ZM5.96024 18.1398C4.98528 18.0954 4.45536 17.933 4.1032 17.7958C3.63632 17.614 3.3032 17.3975 2.95296 17.0478C2.60272 16.698 2.38592 16.3652 2.20496 15.8983C2.06768 15.5463 1.90528 15.0162 1.86096 14.0413C1.81248 12.9872 1.8028 12.6706 1.8028 10.0001C1.8028 7.3296 1.81328 7.01384 1.86096 5.95888C1.90536 4.98392 2.06896 4.45488 2.20496 4.10184C2.38672 3.63496 2.6032 3.30184 2.95296 2.9516C3.30272 2.60136 3.63552 2.38456 4.1032 2.2036C4.4552 2.06632 4.98528 1.90392 5.96024 1.8596C7.01432 1.81112 7.33096 1.80144 10.0002 1.80144C12.6695 1.80144 12.9865 1.81192 14.0414 1.8596C15.0164 1.904 15.5454 2.0676 15.8985 2.2036C16.3654 2.38456 16.6985 2.60184 17.0487 2.9516C17.399 3.30136 17.615 3.63496 17.7967 4.10184C17.934 4.45384 18.0964 4.98392 18.1407 5.95888C18.1892 7.01384 18.1989 7.3296 18.1989 10.0001C18.1989 12.6706 18.1892 12.9863 18.1407 14.0413C18.0963 15.0162 17.9331 15.5462 17.7967 15.8983C17.615 16.3652 17.3985 16.6983 17.0487 17.0478C16.699 17.3972 16.3654 17.614 15.8985 17.7958C15.5465 17.933 15.0164 18.0954 14.0414 18.1398C12.9874 18.1882 12.6707 18.1979 10.0002 18.1979C7.32976 18.1979 7.014 18.1882 5.96024 18.1398ZM5.87744 0.06056C4.81288 0.10904 4.08544 0.27784 3.45016 0.52504C2.79224 0.78032 2.23528 1.1228 1.67872 1.67848C1.12216 2.23416 0.780564 2.792 0.525284 3.44992C0.278084 4.0856 0.109284 4.81264 0.0608041 5.8772C0.0115241 6.94344 0.000244141 7.28432 0.000244141 10C0.000244141 12.7157 0.0115241 13.0566 0.0608041 14.1228C0.109284 15.1874 0.278084 15.9144 0.525284 16.5501C0.780564 17.2076 1.12224 17.7661 1.67872 18.3215C2.2352 18.877 2.79224 19.219 3.45016 19.475C4.08664 19.7222 4.81288 19.891 5.87744 19.9394C6.94424 19.9879 7.28456 20 10.0002 20C12.7159 20 13.0568 19.9887 14.123 19.9394C15.1877 19.891 15.9146 19.7222 16.5503 19.475C17.2078 19.219 17.7652 18.8772 18.3218 18.3215C18.8783 17.7658 19.2192 17.2076 19.4752 16.5501C19.7224 15.9144 19.892 15.1874 19.9397 14.1228C19.9882 13.0558 19.9994 12.7157 19.9994 10C19.9994 7.28432 19.9882 6.94344 19.9397 5.8772C19.8912 4.81256 19.7224 4.0852 19.4752 3.44992C19.2192 2.7924 18.8774 2.23504 18.3218 1.67848C17.7661 1.12192 17.2078 0.78032 16.5511 0.52504C15.9146 0.27784 15.1876 0.10824 14.1238 0.06056C13.0576 0.01208 12.7167 0 10.001 0C7.28536 0 6.94424 0.01128 5.87744 0.06056Z" fill="url(#paint0_radial_314_1217)"/>
<path d="M6.66744 10C6.66744 8.15912 8.15936 6.6664 10.0002 6.6664C11.8411 6.6664 13.3338 8.15912 13.3338 10C13.3338 11.8409 11.8411 13.3336 10.0002 13.3336C8.15936 13.3336 6.66744 11.8409 6.66744 10ZM4.86536 10C4.86536 12.836 7.16424 15.1349 10.0002 15.1349C12.8362 15.1349 15.1351 12.836 15.1351 10C15.1351 7.164 12.8362 4.86512 10.0002 4.86512C7.16424 4.86512 4.86536 7.164 4.86536 10ZM14.1384 4.66152C14.1383 4.89886 14.2086 5.13089 14.3404 5.32829C14.4722 5.52568 14.6595 5.67956 14.8787 5.77047C15.098 5.86138 15.3392 5.88524 15.572 5.83904C15.8048 5.79283 16.0187 5.67862 16.1866 5.51087C16.3545 5.34311 16.4689 5.12934 16.5153 4.89658C16.5616 4.66382 16.538 4.42253 16.4472 4.20322C16.3565 3.98392 16.2028 3.79644 16.0055 3.6645C15.8082 3.53257 15.5762 3.4621 15.3389 3.462H15.3384C15.0203 3.46215 14.7152 3.58856 14.4902 3.81347C14.2652 4.03837 14.1387 4.34339 14.1384 4.66152ZM5.96024 18.1398C4.98528 18.0954 4.45536 17.933 4.1032 17.7958C3.63632 17.614 3.3032 17.3975 2.95296 17.0478C2.60272 16.698 2.38592 16.3652 2.20496 15.8983C2.06768 15.5463 1.90528 15.0162 1.86096 14.0413C1.81248 12.9872 1.8028 12.6706 1.8028 10.0001C1.8028 7.3296 1.81328 7.01384 1.86096 5.95888C1.90536 4.98392 2.06896 4.45488 2.20496 4.10184C2.38672 3.63496 2.6032 3.30184 2.95296 2.9516C3.30272 2.60136 3.63552 2.38456 4.1032 2.2036C4.4552 2.06632 4.98528 1.90392 5.96024 1.8596C7.01432 1.81112 7.33096 1.80144 10.0002 1.80144C12.6695 1.80144 12.9865 1.81192 14.0414 1.8596C15.0164 1.904 15.5454 2.0676 15.8985 2.2036C16.3654 2.38456 16.6985 2.60184 17.0487 2.9516C17.399 3.30136 17.615 3.63496 17.7967 4.10184C17.934 4.45384 18.0964 4.98392 18.1407 5.95888C18.1892 7.01384 18.1989 7.3296 18.1989 10.0001C18.1989 12.6706 18.1892 12.9863 18.1407 14.0413C18.0963 15.0162 17.9331 15.5462 17.7967 15.8983C17.615 16.3652 17.3985 16.6983 17.0487 17.0478C16.699 17.3972 16.3654 17.614 15.8985 17.7958C15.5465 17.933 15.0164 18.0954 14.0414 18.1398C12.9874 18.1882 12.6707 18.1979 10.0002 18.1979C7.32976 18.1979 7.014 18.1882 5.96024 18.1398ZM5.87744 0.06056C4.81288 0.10904 4.08544 0.27784 3.45016 0.52504C2.79224 0.78032 2.23528 1.1228 1.67872 1.67848C1.12216 2.23416 0.780564 2.792 0.525284 3.44992C0.278084 4.0856 0.109284 4.81264 0.0608041 5.8772C0.0115241 6.94344 0.000244141 7.28432 0.000244141 10C0.000244141 12.7157 0.0115241 13.0566 0.0608041 14.1228C0.109284 15.1874 0.278084 15.9144 0.525284 16.5501C0.780564 17.2076 1.12224 17.7661 1.67872 18.3215C2.2352 18.877 2.79224 19.219 3.45016 19.475C4.08664 19.7222 4.81288 19.891 5.87744 19.9394C6.94424 19.9879 7.28456 20 10.0002 20C12.7159 20 13.0568 19.9887 14.123 19.9394C15.1877 19.891 15.9146 19.7222 16.5503 19.475C17.2078 19.219 17.7652 18.8772 18.3218 18.3215C18.8783 17.7658 19.2192 17.2076 19.4752 16.5501C19.7224 15.9144 19.892 15.1874 19.9397 14.1228C19.9882 13.0558 19.9994 12.7157 19.9994 10C19.9994 7.28432 19.9882 6.94344 19.9397 5.8772C19.8912 4.81256 19.7224 4.0852 19.4752 3.44992C19.2192 2.7924 18.8774 2.23504 18.3218 1.67848C17.7661 1.12192 17.2078 0.78032 16.5511 0.52504C15.9146 0.27784 15.1876 0.10824 14.1238 0.06056C13.0576 0.01208 12.7167 0 10.001 0C7.28536 0 6.94424 0.01128 5.87744 0.06056Z" fill="url(#paint1_radial_314_1217)"/>
</g>
<defs>
<radialGradient id="paint0_radial_314_1217" cx="0" cy="0" r="1" gradientUnits="userSpaceOnUse" gradientTransform="translate(2.65736 20.0945) scale(26.1083 26.1083)">
<stop offset="0.09" stop-color="#FA8F21"/>
<stop offset="0.78" stop-color="#D82D7E"/>
</radialGradient>
<radialGradient id="paint1_radial_314_1217" cx="0" cy="0" r="1" gradientUnits="userSpaceOnUse" gradientTransform="translate(12.1294 20.9905) scale(20.577 20.577)">
<stop offset="0.64" stop-color="#8C3AAA" stop-opacity="0"/>
<stop offset="1" stop-color="#8C3AAA"/>
</radialGradient>
<clipPath id="clip0_314_1217">
<rect width="20" height="20" fill="white"/>
</clipPath>
</defs>
</svg>
