<svg width="20" height="20" viewBox="0 0 20 20" fill="none" xmlns="http://www.w3.org/2000/svg">
<g clip-path="url(#clip0_449_196)">
<path d="M0 2.66429C0 2.02078 0.225232 1.48989 0.675676 1.07163C1.12612 0.653345 1.71172 0.444214 2.43243 0.444214C3.14029 0.444214 3.71299 0.650121 4.15058 1.06197C4.60102 1.48668 4.82625 2.04008 4.82625 2.72221C4.82625 3.33997 4.60747 3.85475 4.16988 4.26661C3.71944 4.69132 3.12741 4.90367 2.39382 4.90367H2.37452C1.66666 4.90367 1.09396 4.69132 0.656371 4.26661C0.218784 3.8419 0 3.30779 0 2.66429ZM0.250965 19.5562V6.66043H4.53668V19.5562H0.250965ZM6.9112 19.5562H11.1969V12.3554C11.1969 11.9049 11.2484 11.5575 11.3514 11.3129C11.5315 10.8754 11.805 10.5053 12.1718 10.2029C12.5386 9.90045 12.9987 9.74923 13.5521 9.74923C14.9936 9.74923 15.7143 10.7209 15.7143 12.6643V19.5562H20V12.1624C20 10.2576 19.5496 8.81294 18.6486 7.82838C17.7477 6.84383 16.5573 6.35155 15.0772 6.35155C13.417 6.35155 12.1236 7.06584 11.1969 8.49441V8.53302H11.1776L11.1969 8.49441V6.66043H6.9112C6.93693 7.07226 6.94981 8.35282 6.94981 10.5021C6.94981 12.6514 6.93693 15.6694 6.9112 19.5562Z" fill="#006699"/>
</g>
<defs>
<clipPath id="clip0_449_196">
<rect width="20" height="19.112" fill="white" transform="translate(0 0.444)"/>
</clipPath>
</defs>
</svg>
