<svg width="20" height="22" viewBox="0 0 20 22" fill="none" xmlns="http://www.w3.org/2000/svg">
<path d="M5.26685 18.3529L5.59365 18.5163C6.92616 19.3089 8.44954 19.7232 9.99992 19.7146C14.7728 19.7037 18.6943 15.7729 18.6943 11C18.6943 8.69341 17.7782 6.47828 16.1491 4.84538C14.5222 3.19561 12.2995 2.26588 9.98305 2.26588C5.23199 2.26588 1.32297 6.17545 1.32297 10.926C1.32297 10.9636 1.32297 11.0006 1.32351 11.0382C1.33782 12.6533 1.78956 14.2344 2.6307 15.6133L2.84856 15.9401L1.97711 19.1536L5.26685 18.3529Z" fill="#00E676"/>
<path d="M17.1186 3.86504C15.2641 1.97288 12.7199 0.911358 10.0707 0.923847H10.0538C4.59802 0.923865 0.108398 5.41351 0.108398 10.8693C0.108398 10.8949 0.108944 10.92 0.108944 10.9456C0.129494 12.6802 0.578544 14.3829 1.41613 15.902L0 21.0763L5.27776 19.7146C6.73574 20.5151 8.37487 20.9277 10.0381 20.9129C15.5141 20.8829 20.0032 16.3677 19.9999 10.8911C20.0129 8.25988 18.9754 5.7294 17.1186 3.86504ZM10.0707 19.2244C8.59644 19.2321 7.14809 18.8366 5.88232 18.0806L5.55552 17.9172L2.41284 18.7342L3.22982 15.6297L3.01197 15.3029C2.20271 13.9962 1.77397 12.4897 1.77395 10.9527C1.77395 6.42004 5.50379 2.69019 10.0364 2.69019C14.5691 2.69019 18.2989 6.42004 18.2989 10.9527C18.2989 13.8067 16.8202 16.4657 14.3953 17.9717C13.1129 18.7932 11.621 19.2281 10.098 19.2244M14.8855 13.1787L14.2864 12.9064C14.2864 12.9064 13.4149 12.5251 12.8703 12.2528C12.8158 12.2528 12.7614 12.1983 12.7069 12.1983C12.5726 12.2016 12.4414 12.2391 12.3256 12.3073C12.2096 12.3753 12.2712 12.3617 11.5086 13.2332C11.4569 13.335 11.3507 13.3988 11.2363 13.3966H11.1818C11.1 13.3829 11.0241 13.3449 10.964 13.2876L10.6917 13.1787C10.1073 12.9313 9.57229 12.5808 9.11214 12.1439C9.00321 12.0349 8.83982 11.926 8.73088 11.817C8.32767 11.4308 7.97947 10.991 7.69604 10.5099L7.64156 10.4009C7.59424 10.3344 7.5575 10.2609 7.53263 10.1831C7.51839 10.0887 7.53766 9.99237 7.58709 9.91076C7.63666 9.82905 7.80496 9.63841 7.96835 9.47502C8.13176 9.31163 8.13176 9.2027 8.24069 9.09376C8.29667 9.01601 8.33536 8.92717 8.35415 8.83323C8.37294 8.73928 8.37139 8.64239 8.34962 8.54909C8.09579 7.84433 7.8049 7.15347 7.47817 6.4794C7.39059 6.3432 7.25415 6.24574 7.09691 6.20707H6.49778C6.38885 6.20707 6.27992 6.26153 6.17098 6.26153L6.11651 6.31599C6.00759 6.37046 5.89866 6.4794 5.78972 6.53386C5.68079 6.58833 5.62633 6.75173 5.5174 6.86066C5.13664 7.34182 4.92596 7.93555 4.91827 8.54909C4.9243 8.98068 5.0169 9.40667 5.19059 9.80182L5.24507 9.96521C5.73412 11.0108 6.41809 11.9536 7.26031 12.743L7.47817 12.9608C7.63671 13.0922 7.78259 13.238 7.91389 13.3966C9.04242 14.3786 10.3828 15.0866 11.83 15.4663C11.9934 15.5207 12.2113 15.5207 12.3746 15.5752H12.9193C13.204 15.5612 13.4824 15.4869 13.7363 15.3573C13.8697 15.2969 13.9972 15.2239 14.1176 15.1395L14.2265 15.0305C14.3354 14.9216 14.4444 14.8671 14.5533 14.7582C14.6597 14.6634 14.7515 14.5532 14.8256 14.4314C14.9302 14.1874 15.0037 13.9314 15.0435 13.6689V13.2876C14.9945 13.2437 14.9395 13.207 14.8801 13.1787" fill="white"/>
</svg>
